Release Date----- 26.03.2010

      Complete name : Spartacus.Blood.and.Sand.S01E10. Party Favors.HDTV.XviD-Ipolitan.avi
      Format : AVI
      Format/Info : Audio Video Interleave
      File size : 592 MiB
      Duration : 50mn 32s
      Overall bit rate : 1 636 Kbps
      Writing application : MEncoder Sherpya-SVN-r30075-4.2.5
      Writing library : MPlayer
   Video
      Format : MPEG-4 Visual
      Format profile : Simple@L3
      Format settings, BVOP : No
      Format settings, QPel : No
      Format settings, GMC : No warppoints
      Format settings, Matrix : Default
      Codec ID : XVID
      Codec ID/Hint : XviD
      Duration : 50mn 32s
      Bit rate : 1 500 Kbps
      Width : 1 280 pixels
      Height : 720 pixels
      Display aspect ratio : 16/9
      Frame rate : 23.976 fps
      Resolution : 24 bits
      Colorimetry : 4:2:0
      Scan type : Progressive
      Bits/(Pixel*Frame) : 0.068
      Stream size : 542 MiB (92%)
      Writing library : XviD 50
   Audio
      Format : MPEG Audio
      Format version : Version 1
      Format profile : Layer 3
      Codec ID : 55
      Codec ID/Hint : MP3
      Duration : 50mn 32s
      Bit rate mode : Variable
      Bit rate : 124 Kbps
      Channel(s) : 2 channels
      Sampling rate : 44.1 KHz
      Resolution : 16 bits
      Stream size : 44.9 MiB (8%)
      Alignment : Aligned on interleaves
      Interleave, duration : 26 ms (0.63 video frame)
      Interleave, preload duration : 376 ms
      Writing library : LAME3.98.2

Seed and enjoy !


